<svg width="17" height="16" viewBox="0 0 17 16" fill="none" xmlns="http://www.w3.org/2000/svg">
<path d="M16.5385 6.0972C16.5036 5.98994 16.4108 5.91172 16.2991 5.89542L10.9391 5.11646L8.5421 0.259572C8.49232 0.158238 8.38921 0.0942383 8.27662 0.0942383C8.16402 0.0942383 8.06061 0.158238 8.01113 0.259572L5.6138 5.11676L0.2538 5.89572C0.142096 5.91202 0.049652 5.98994 0.0143927 6.0975C-0.0202739 6.20446 0.0084668 6.32239 0.0893557 6.40091L3.96817 10.1816L3.05232 15.5203C3.03336 15.6314 3.07899 15.7437 3.16995 15.8101C3.2615 15.8771 3.38269 15.8856 3.48195 15.8326L8.27662 13.3123L13.0707 15.8326C13.1139 15.8554 13.1617 15.8667 13.2088 15.8667C13.2701 15.8667 13.3311 15.8477 13.383 15.8101C13.4742 15.7437 13.5199 15.6314 13.5006 15.5203L12.5851 10.1819L16.4639 6.40091C16.5445 6.32179 16.5735 6.20416 16.5385 6.0972Z" fill="#EF9546"/>
</svg>
